# xmcd
# 
# Track frame offsets:
#     182
#     11047
#     21862
#     31760
#     42882
#     53452
#     64595
#     75517
#     84755
#     94370
#     104750
#     116420
#     128605
#     138820
# 
# Disc length: 2021
# 
# Revision: 3
# Processed by: cddbd v1.5.2PL0 Copyright (c) Steve Scherf et al.
# Submitted via: fre:ac v1.0.31
# 
DISCID=a007e30e
DTITLE=Dolly Parton - The Great Dolly Parton
DYEAR=1999
DGENRE=Country
TTITLE0=I Took Him For Granted
TTITLE1=The Little Things
TTITLE2=I'm In No Condition
TTITLE3=What Do You Think About Loving
TTITLE4=Why, Why, Why
TTITLE5=Dumb Blonde
TTITLE6=I Couldn't Wait Forever
TTITLE7=Busy Signal
TTITLE8=Something Fishy
TTITLE9=Put It Off Until Tomorrow
TTITLE10=Letter To Heaven
TTITLE11=Two Little Orphans
TTITLE12=Release Me
TTITLE13=Little Blossom
EXTD=Copyright  I.M.C. Music Ltd 1999
EXTT0=D.Parton
EXTT1=D.Parton
EXTT2=D.Parton
EXTT3=D.Parton
EXTT4=D.Parton
EXTT5=D.Parton
EXTT6=D.Parton
EXTT7=D.Parton
EXTT8=D.Parton
EXTT9=D.Parton
EXTT10=Jeffe
EXTT11=Jeffe
EXTT12=Miller/Stevenson
EXTT13=Jeffe
PLAYORDER=
